<?xml version="1.0" standalone="no"?>
<!DOCTYPE svg PUBLIC "-//W3C//DTD SVG 20010904//EN"
 "http://www.w3.org/TR/2001/REC-SVG-20010904/DTD/svg10.dtd">
<svg version="1.0" xmlns="http://www.w3.org/2000/svg"
 width="512.000000pt" height="512.000000pt" viewBox="0 0 512.000000 512.000000"
 preserveAspectRatio="xMidYMid meet">

<g transform="translate(0.000000,512.000000) scale(0.100000,-0.100000)"
fill="#478cbf" stroke="none">
<path d="M1460 2747 c-225 -63 -297 -344 -130 -506 59 -57 136 -84 225 -79
112 7 195 61 244 160 55 109 39 242 -40 332 -72 82 -199 121 -299 93z"/>
<path d="M3507 2746 c-61 -17 -122 -59 -164 -114 -40 -52 -53 -98 -53 -183 0
-122 72 -226 188 -269 142 -54 305 8 373 142 30 59 37 168 15 236 -47 140
-215 229 -359 188z"/>
</g>
</svg>

