<?xml version="1.0" standalone="no"?>
<!DOCTYPE svg PUBLIC "-//W3C//DTD SVG 20010904//EN"
 "http://www.w3.org/TR/2001/REC-SVG-20010904/DTD/svg10.dtd">
<svg version="1.0" xmlns="http://www.w3.org/2000/svg"
 width="1200.000000pt" height="1200.000000pt" viewBox="0 0 1200.000000 1200.000000"
 preserveAspectRatio="xMidYMid meet">

<g transform="translate(0.000000,1200.000000) scale(0.100000,-0.100000)"
fill="#f3eee8" stroke="none">
<path d="M3425 6440 c-95 -25 -138 -44 -216 -96 -307 -203 -402 -606 -222
-934 22 -40 69 -97 122 -150 68 -68 103 -94 171 -127 125 -61 203 -76 352 -71
106 4 134 9 206 36 404 151 580 610 380 995 -87 166 -257 299 -444 347 -101
26 -252 26 -349 0z"/>
<path d="M8222 6440 c-246 -66 -440 -262 -502 -506 -13 -51 -20 -110 -20 -174
0 -299 178 -554 462 -663 80 -31 88 -32 238 -31 142 0 161 2 228 26 109 39
178 84 268 173 157 156 228 354 203 574 -30 269 -211 494 -468 584 -74 27
-103 31 -211 34 -100 2 -139 -1 -198 -17z"/>
</g>
</svg>
